<?xml version="1.0" encoding="utf-8"?>
<!-- Generator: Adobe Illustrator 22.0.1, SVG Export Plug-In . SVG Version: 6.00 Build 0)  -->
<svg version="1.1" id="레이어_1" xmlns="http://www.w3.org/2000/svg" xmlns:xlink="http://www.w3.org/1999/xlink" x="0px"
	 y="0px" viewBox="0 0 222.8 64.5" style="enable-background:new 0 0 222.8 64.5;" xml:space="preserve">
<style type="text/css">
	.st0{fill:#FFFFFF;}
</style>
<g>
	<path class="st0" d="M10.6,40.5l4.2-2.4c0.7,1.2,1.4,1.8,3,1.8c2.1,0,2.7-1.2,2.7-2.5V23.1h4.8v14.2c0,4.6-3.2,7.2-7.6,7.2
		C14.4,44.5,12,43.1,10.6,40.5z"/>
	<path class="st0" d="M58.8,44.1H54V31.9l-5.4,8.9H48l-5.4-8.9v12.2h-4.8v-21h4.8l5.7,9.3l5.7-9.3h4.8V44.1z"/>
	<path class="st0" d="M69.9,23.1h5l3.6,14.7l4-14.7h3.9l4,14.7L94,23.1h5l-5.8,21H88l-3.4-12.4l-3.4,12.4h-5.5L69.9,23.1z"/>
	<path class="st0" d="M108.5,33.6c0-6.2,4.9-10.9,10.9-10.9s10.9,4.7,10.9,10.9s-4.9,10.9-10.9,10.9S108.5,39.8,108.5,33.6z
		 M125.5,33.6c0-3.8-2.7-6.2-6.1-6.2s-6.1,2.5-6.1,6.2s2.7,6.2,6.1,6.2S125.5,37.4,125.5,33.6z"/>
	<path class="st0" d="M149.1,37.2h-2.3v6.9H142v-21h8.4c4,0,7.2,3.2,7.2,7.2c0,2.6-1.6,4.9-3.9,6.1l4.5,7.7H153L149.1,37.2z
		 M146.8,33h3.6c1.3,0,2.4-1.2,2.4-2.7s-1.1-2.7-2.4-2.7h-3.6V33z"/>
	<path class="st0" d="M181.8,39.5v4.6h-12.3v-21h4.8v16.4H181.8z"/>
	<path class="st0" d="M211.5,33.6c0,5.9-4.4,10.5-10.2,10.5h-8.4v-21h8.4C207.1,23.1,211.5,27.7,211.5,33.6z M206.9,33.6
		c0-3.6-2.3-5.9-5.6-5.9h-3.6v11.8h3.6C204.6,39.5,206.9,37.2,206.9,33.6z"/>
</g>
</svg>
